Coordinates
version=1
nRows=21
nColumns=12
inDegrees=yes

Units are S.I. units (second, meters, Newtons, ...)
Angles are in degrees

endheader
time	SC_y	SC_z	SC_x	AC_y	AC_z	AC_x	GH_y	GH_z	GH_yy	EL_x	PS_y
       0.0              -34.39          8.837           56.5          35.42         -8.783         -1.327          125.7          10.08          43.48          56.42          141.3
  0.005193              -34.38          8.835           56.5          35.43         -8.783         -1.324          125.6          10.08          43.47          56.42          141.3
   0.01039              -34.38          8.833           56.5          35.43         -8.783         -1.322          125.6          10.09          43.46          56.42          141.3
   0.01558              -34.38          8.831           56.5          35.44         -8.783         -1.319          125.6           10.1          43.45          56.41          141.3
   0.02077              -34.37          8.829          56.49          35.44         -8.783         -1.316          125.6           10.1          43.44          56.41          141.3
   0.02596              -34.37          8.826          56.49          35.45         -8.784         -1.313          125.5          10.11          43.43          56.41          141.3
   0.03116              -34.37          8.824          56.49          35.45         -8.784         -1.309          125.5          10.12          43.42           56.4          141.3
   0.03635              -34.36          8.821          56.49          35.46         -8.784         -1.306          125.5          10.13           43.4           56.4          141.3
   0.04154              -34.36          8.819          56.48          35.47         -8.785         -1.302          125.4          10.14          43.39          56.39          141.3
   0.04673              -34.35          8.815          56.48          35.48         -8.785         -1.298          125.4          10.15          43.37          56.39          141.3
   0.05193              -34.35          8.812          56.48          35.49         -8.785         -1.293          125.3          10.16          43.35          56.38          141.3
   0.05712              -34.34          8.809          56.48          35.49         -8.786         -1.288          125.3          10.17          43.33          56.37          141.3
   0.06231              -34.33          8.805          56.47           35.5         -8.786         -1.283          125.2          10.18          43.31          56.37          141.3
    0.0675              -34.33          8.801          56.47          35.52         -8.787         -1.277          125.2          10.19          43.29          56.36          141.3
    0.0727              -34.32          8.796          56.46          35.53         -8.787         -1.271          125.1           10.2          43.27          56.35          141.3
   0.07789              -34.31          8.792          56.46          35.54         -8.788         -1.265          125.1          10.22          43.24          56.34          141.3
   0.08308               -34.3          8.786          56.46          35.55         -8.788         -1.257          125.0          10.24          43.21          56.33          141.3
   0.08827              -34.29          8.781          56.45          35.57         -8.789         -1.249          124.9          10.25          43.18          56.32          141.3
   0.09347              -34.28          8.775          56.44          35.58          -8.79         -1.241          124.8          10.27          43.15          56.31          141.3
   0.09866              -34.27          8.768          56.44           35.6          -8.79         -1.231          124.8          10.29          43.11           56.3          141.3
    0.1039              -34.26           8.76          56.43          35.62         -8.791         -1.221          124.7          10.32          43.07          56.29          141.3
